<?xml version="1.0" encoding="utf-8"?>
<!-- Generator: Adobe Illustrator 21.0.2, SVG Export Plug-In . SVG Version: 6.00 Build 0)  -->
<svg version="1.1" xmlns="http://www.w3.org/2000/svg" xmlns:xlink="http://www.w3.org/1999/xlink" x="0px" y="0px"
	 viewBox="0 0 300 300.4" style="enable-background:new 0 0 300 300.4;" xml:space="preserve">
<style type="text/css">
	.st0{fill:#F6C443;}
	.st1{filter:url(#Adobe_OpacityMaskFilter);}
	.st2{opacity:0.15;mask:url(#SVGID_1_);}
	.st3{fill:#0074A9;}
	.st4{display:none;}
	.st5{fill:#FFFFFF;}
	.st6{display:inline;}
	.st7{fill:#40BAC8;}
</style>
<g id="Layer_1">
	<g>
		<g>
			<path class="st0" d="M287,97.3c-0.6-22.4-15-37.9-31.7-45.7c-20-9.3-43.3-3.7-57.7,11c-5.1,5.3-8.9,12-16,18.7
				c-12.3,11.7-20,15.1-31.7,15.3c-18.7,0.3-30.8-11.1-33.5-13.4c-4.9-4-5.8-9.6-11-15c-13-13.4-37.3-25.9-63-14
				C-4.3,76,3.7,159,73.4,154.3c9.9,1,16.8,5.3,22.5,11c2.3,2.3,5.5,5.8,8,10c2.8,4.7,6.2,12.2,7,16c1.6,7.7,1.7,13.7-1.7,22.3
				c-3.1,8-9.7,16.4-10.9,22.6c-6.8,36.4,20.5,64.1,52,64c27.5-0.1,58.3-25.7,51-63c-1.4-7.2-5.6-13.9-9.5-21.3
				c-3.9-7.3-3.1-20.6-0.7-31.3c3.5-9,5.9-12.3,11.3-18c2.9-3,16.1-10.9,24.8-12.4c9.5-1.6,17.7-1.6,25.5-4.6
				C272.4,142.3,287.7,121.3,287,97.3L287,97.3z M64.6,129.4c-14.9,0-27-12.2-27-27.3s12.1-27.3,27-27.3c14.9,0,27,12.2,27,27.3
				S79.6,129.4,64.6,129.4z M150,275c-14.9,0-27-12.2-27-27.3c0-15.1,12.1-27.3,27-27.3s27,12.2,27,27.3
				C177,262.8,164.9,275,150,275z M150,177c-14.9,0-27-12.2-27-27.3c0-15.1,12.1-27.3,27-27.3c14.9,0,27,12.2,27,27.3
				C177,164.8,164.9,177,150,177L150,177z M234.6,127.4c-14.9,0-27-12.2-27-27.3s12.1-27.3,27-27.3c14.9,0,27,12.2,27,27.3
				S249.6,127.4,234.6,127.4z"/>
		</g>
		<defs>
			<filter id="Adobe_OpacityMaskFilter" filterUnits="userSpaceOnUse" x="13" y="47.1" width="274" height="253.2">
				
					<feColorMatrix  type="matrix" values="-1 0 0 0 1  0 -1 0 0 1  0 0 -1 0 1  0 0 0 1 0" color-interpolation-filters="sRGB" result="source"/>
			</filter>
		</defs>
		<mask maskUnits="userSpaceOnUse" x="13" y="47.1" width="274" height="253.2" id="SVGID_1_">
			<g class="st1">
				
					<image style="overflow:visible;" width="279" height="258" xlink:href="17F774D9FA8A1C7D.jpg"  transform="matrix(1 0 0 1 10.8715 44.428)">
				</image>
			</g>
		</mask>
		<g class="st2">
			<path d="M287,97.3c-0.6-22.4-15-37.9-31.7-45.7c-20-9.3-43.3-3.7-57.7,11c-5.1,5.3-8.9,12-16,18.7c-12.3,11.7-20,15.1-31.7,15.3
				c-18.7,0.3-30.8-11.1-33.5-13.4c-4.9-4-5.8-9.6-11-15c-13-13.4-37.3-25.9-63-14C-4.3,76,3.7,159,73.4,154.3
				c9.9,1,16.8,5.3,22.5,11c2.3,2.3,5.5,5.8,8,10c2.8,4.7,6.2,12.2,7,16c1.6,7.7,1.7,13.7-1.7,22.3c-3.1,8-9.7,16.4-10.9,22.6
				c-6.8,36.4,20.5,64.1,52,64c27.5-0.1,58.3-25.7,51-63c-1.4-7.2-5.6-13.9-9.5-21.3c-3.9-7.3-3.1-20.6-0.7-31.3
				c3.5-9,5.9-12.3,11.3-18c2.9-3,16.1-10.9,24.8-12.4c9.5-1.6,17.7-1.6,25.5-4.6C272.4,142.3,287.7,121.3,287,97.3L287,97.3z
				 M64.6,129.4c-14.9,0-27-12.2-27-27.3s12.1-27.3,27-27.3c14.9,0,27,12.2,27,27.3S79.6,129.4,64.6,129.4z M150,275
				c-14.9,0-27-12.2-27-27.3c0-15.1,12.1-27.3,27-27.3s27,12.2,27,27.3C177,262.8,164.9,275,150,275z M150,177
				c-14.9,0-27-12.2-27-27.3c0-15.1,12.1-27.3,27-27.3c14.9,0,27,12.2,27,27.3C177,164.8,164.9,177,150,177L150,177z M234.6,127.4
				c-14.9,0-27-12.2-27-27.3s12.1-27.3,27-27.3c14.9,0,27,12.2,27,27.3S249.6,127.4,234.6,127.4z"/>
		</g>
	</g>
</g>
<g id="Layer_2">
	<g>
		<title>wordpress</title>
		<path class="st3" d="M76.2,81.9c-7.8-4.5-17.4-4.2-24.7,0.8l32,5.7C81.5,85.7,79.1,83.5,76.2,81.9z"/>
		<path class="st3" d="M57.9,116.1c2,1.1,4.3,1.7,6.5,1.6c2.3-0.1,4.2-0.2,5.9,0.8c2,1.1,2.7,3.5,1.7,5.4l-0.2,0.3
			c12.3-3.8,19-16.8,15.1-29c-0.4-1.2-0.9-2.4-1.4-3.5l-0.7,1.3c-1.2,2.1-2.8,5.5-2.8,5.5c-0.3,0.5-0.8,0.6-1.3,0.4
			c-0.4-0.2-0.6-0.8-0.4-1.2c0,0,0.5-1.2,1.1-2.4l-26.2-5.4l10.8,12.1l10.4,1.9c0.7-1,1.4-2,1.4-2c0.3-0.4,0.9-0.6,1.4-0.3
			c0.4,0.3,0.6,0.9,0.3,1.4c0,0-2.2,3.2-3.3,5.1c-1.2,2.1-2.8,5.5-2.8,5.5c-0.3,0.5-0.8,0.6-1.3,0.4c-0.4-0.2-0.6-0.8-0.4-1.2
			c0,0,0.5-1.2,1.1-2.4l-25.9-5.4l5.6,5.9C54.5,113.2,56.1,115.1,57.9,116.1z"/>
		<path class="st3" d="M62.7,101.3L48.5,85c-3.5,3.3-5.9,7.7-6.8,12.5c0.1,0,0.2,0,0.4,0L62.7,101.3z"/>
		<path class="st3" d="M64.2,125.1c-0.7-0.3-1.5-0.7-2.2-1.1c-2.5-1.5-4.7-3.4-6.4-5.7l-14.3-16.4C41.4,114.5,51.6,124.8,64.2,125.1
			z"/>
		<path class="st3" d="M88.3,115.6c7.5-12.9,2.9-29.5-10.1-37c-13-7.5-29.7-3.2-37.1,9.8s-2.9,29.5,10.1,37
			C64.2,132.8,80.8,128.5,88.3,115.6z M42.1,88.9c7.1-12.3,23-16.5,35.4-9.3s16.8,23,9.6,35.3c-7.1,12.3-23,16.5-35.4,9.3
			C39.4,117,35,101.3,42.1,88.9z"/>
	</g>
</g>
<g id="layer_3">
	<g>
		<title>wordpress</title>
		<path class="st3" d="M246,120c7.8-4.5,12.3-13,11.7-21.8L236.8,123C240,122.7,243.2,121.6,246,120z"/>
		<path class="st3" d="M225.6,87c-2,1.2-3.6,2.9-4.6,4.9c-1.1,2-1.9,3.8-3.6,4.7c-1.9,1.2-4.4,0.6-5.5-1.3l-0.2-0.3
			c-2.8,12.5,5,24.9,17.6,27.6c1.2,0.3,2.5,0.4,3.7,0.5l-0.7-1.3c-1.2-2.1-3.3-5.2-3.3-5.2c-0.3-0.5-0.1-1,0.3-1.3
			c0.4-0.3,1-0.2,1.3,0.2c0,0,0.8,1,1.5,2.2l17.7-20l-15.8,3.3l-6.8,8.1c0.6,1.1,1,2.2,1,2.2c0.2,0.5,0,1.1-0.5,1.3
			c-0.5,0.2-1.1,0-1.3-0.4c0,0-1.7-3.5-2.8-5.4c-1.2-2.1-3.3-5.2-3.3-5.2c-0.3-0.5-0.1-1,0.3-1.3c0.4-0.3,1-0.2,1.3,0.2
			c0,0,0.8,1,1.5,2.2l17.6-19.8l-7.9,1.9C229.7,85.5,227.3,86,225.6,87z"/>
		<path class="st3" d="M236,98.6l21.2-4.2c-1.1-4.7-3.7-9-7.4-12.1c-0.1,0.1-0.1,0.2-0.2,0.3L236,98.6z"/>
		<path class="st3" d="M214.6,87.9c0.6-0.5,1.3-0.9,2-1.3c2.5-1.4,5.3-2.3,8.2-2.7l21.4-4.2C235.2,73.5,221.2,77.1,214.6,87.9z"/>
		<path class="st3" d="M210.8,113.5c7.5,12.9,24.1,17.3,37.1,9.8c13-7.5,17.6-24.1,10.1-37S234,69,221,76.5
			C207.9,84.1,203.4,100.6,210.8,113.5z M257,86.9c7.1,12.3,2.8,28.1-9.6,35.3c-12.4,7.2-28.3,3-35.4-9.3
			c-7.1-12.3-2.8-28.1,9.6-35.3C234,70.4,249.8,74.6,257,86.9z"/>
	</g>
</g>
<g id="layer_4">
	<g>
		<title>wordpress</title>
		<path class="st3" d="M126.8,247.7c0,9,5.1,17.1,13.1,21l-11-30.6C127.5,241.1,126.8,244.4,126.8,247.7z"/>
		<path class="st3" d="M165.6,246.5c0-2.3-0.7-4.5-1.9-6.4c-1.2-1.9-2.3-3.6-2.3-5.5c-0.1-2.2,1.7-4.1,3.9-4.1h0.3
			c-9.4-8.7-24.1-8.1-32.7,1.4c-0.8,0.9-1.6,1.9-2.3,3h1.5c2.4,0,6.2-0.3,6.2-0.3c0.5,0,1,0.4,1,0.9c0,0.5-0.3,0.9-0.8,1
			c0,0-1.3,0.2-2.7,0.2l8.5,25.4l5.1-15.4l-3.6-10c-1.3-0.1-2.4-0.2-2.4-0.2c-0.5,0-0.9-0.5-0.9-1c0-0.5,0.5-0.9,1-0.9
			c0,0,3.8,0.3,6.1,0.3c2.4,0,6.2-0.3,6.2-0.3c0.5,0,1,0.4,1,0.9c0,0.5-0.3,0.9-0.8,1c0,0-1.3,0.2-2.7,0.2l8.3,25.1l2.3-7.8
			C164.9,250.8,165.6,248.5,165.6,246.5z"/>
		<path class="st3" d="M150.4,249.7l-7,20.4c4.7,1.4,9.6,1.3,14.2-0.4c-0.1-0.1-0.1-0.2-0.2-0.3L150.4,249.7z"/>
		<path class="st3" d="M170.3,236.4c0.1,0.8,0.2,1.6,0.2,2.4c0,2.9-0.6,5.8-1.8,8.4l-7.1,20.6C172.5,261.5,176.4,247.6,170.3,236.4z
			"/>
		<path class="st3" d="M150,220.4c-14.9,0-27,12.2-27,27.3c0,15.1,12.1,27.3,27,27.3c14.9,0,27-12.2,27-27.3
			C177,232.6,164.9,220.4,150,220.4z M150,273.7c-14.2,0-25.8-11.6-25.8-26c0-14.4,11.5-26,25.8-26c14.2,0,25.8,11.6,25.8,26
			C175.7,262,164.2,273.7,150,273.7z"/>
	</g>
</g>
<g id="Layer_5" class="st4">
	<circle class="st5" cx="150.4" cy="149.9" r="28.6"/>
	<g class="st6">
		<title>wpe-logomark</title>
		<polygon class="st7" points="143.5,167.9 155.6,167.9 155.6,158.7 152.7,155.8 146.4,155.8 143.5,158.7 		"/>
		<polygon class="st7" points="159.2,143 156.3,145.9 156.3,152.3 159.2,155.1 168.4,155.1 168.4,143 		"/>
		<polygon class="st7" points="155.6,130.2 143.5,130.2 143.5,139.5 146.4,142.4 152.7,142.4 155.6,139.5 		"/>
		<polygon class="st7" points="168.4,167.9 168.4,158.7 165.5,155.8 156.3,155.8 156.3,167.9 		"/>
		<polygon class="st7" points="133.6,130.2 130.7,133.1 130.7,142.4 142.8,142.4 142.8,130.2 		"/>
		<polygon class="st7" points="156.3,130.2 156.3,139.5 159.2,142.4 168.4,142.4 168.4,130.2 		"/>
		<path class="st7" d="M149.6,150.8c-0.9,0-1.7-0.8-1.7-1.7c0-0.9,0.8-1.7,1.7-1.7c0.9,0,1.7,0.8,1.7,1.7
			C151.3,150,150.5,150.8,149.6,150.8C149.6,150.8,149.6,150.8,149.6,150.8z"/>
		<polygon class="st7" points="142.8,143 130.7,143 130.7,155.1 139.9,155.1 142.8,152.3 		"/>
		<polygon class="st7" points="142.8,158.7 139.9,155.8 130.7,155.8 130.7,167.9 139.9,167.9 142.8,165.1 		"/>
	</g>
</g>
</svg>
